<?xml version="1.0" standalone="no"?>
<svg viewBox="0 0 200 200" xmlns="http://www.w3.org/2000/svg">
  <path fill="#FF0066" d="M32.5,-56.8C42.4,-50.5,50.9,-42.4,59.8,-32.6C68.7,-22.9,77.9,-11.4,78,0C78,11.5,68.9,23,60.2,33.1C51.5,43.3,43.4,52.1,33.4,61.9C23.5,71.7,11.7,82.4,-1.7,85.3C-15.1,88.2,-30.1,83.2,-42.4,74.8C-54.7,66.4,-64.3,54.5,-70.8,41.5C-77.3,28.4,-80.7,14.2,-81.1,-0.2C-81.5,-14.7,-78.9,-29.4,-71.7,-41.2C-64.5,-53,-52.8,-62,-40,-66.7C-27.3,-71.4,-13.7,-71.9,-1.2,-69.8C11.3,-67.8,22.6,-63.2,32.5,-56.8Z" transform="translate(100 100)" />
</svg>
